<svg width="28" height="28" viewBox="0 0 28 28" fill="none" xmlns="http://www.w3.org/2000/svg">
<path d="M14 0C11.2311 0 8.52431 0.821086 6.22202 2.35943C3.91973 3.89777 2.12532 6.08427 1.06569 8.64243C0.00606596 11.2006 -0.271181 14.0155 0.269012 16.7313C0.809205 19.447 2.14258 21.9416 4.10051 23.8995C6.05845 25.8574 8.55301 27.1908 11.2687 27.731C13.9845 28.2712 16.7994 27.9939 19.3576 26.9343C21.9157 25.8747 24.1022 24.0803 25.6406 21.778C27.1789 19.4757 28 16.7689 28 14C28 10.287 26.525 6.72601 23.8995 4.1005C21.274 1.475 17.713 0 14 0ZM14 26C11.6266 26 9.30655 25.2962 7.33316 23.9776C5.35977 22.6591 3.8217 20.7849 2.91345 18.5922C2.0052 16.3995 1.76756 13.9867 2.23058 11.6589C2.69361 9.33114 3.83649 7.19295 5.51472 5.51472C7.19295 3.83649 9.33115 2.6936 11.6589 2.23058C13.9867 1.76755 16.3995 2.00519 18.5922 2.91345C20.7849 3.8217 22.6591 5.35977 23.9776 7.33316C25.2962 9.30655 26 11.6266 26 14C26 17.1826 24.7357 20.2348 22.4853 22.4853C20.2349 24.7357 17.1826 26 14 26Z" fill="white" fill-opacity="0.98"/>
<path d="M20.7099 7.29C20.617 7.19627 20.5064 7.12188 20.3845 7.07111C20.2627 7.02034 20.132 6.9942 19.9999 6.9942C19.8679 6.9942 19.7372 7.02034 19.6154 7.07111C19.4935 7.12188 19.3829 7.19627 19.2899 7.29L13.9999 12.59L8.70994 7.29C8.52164 7.1017 8.26624 6.99591 7.99994 6.99591C7.73364 6.99591 7.47824 7.1017 7.28994 7.29C7.10164 7.4783 6.99585 7.7337 6.99585 8C6.99585 8.2663 7.10164 8.5217 7.28994 8.71L12.5899 14L7.28994 19.29C7.19621 19.383 7.12182 19.4936 7.07105 19.6154C7.02028 19.7373 6.99414 19.868 6.99414 20C6.99414 20.132 7.02028 20.2627 7.07105 20.3846C7.12182 20.5064 7.19621 20.617 7.28994 20.71C7.3829 20.8037 7.4935 20.8781 7.61536 20.9289C7.73722 20.9797 7.86793 21.0058 7.99994 21.0058C8.13195 21.0058 8.26266 20.9797 8.38452 20.9289C8.50638 20.8781 8.61698 20.8037 8.70994 20.71L13.9999 15.41L19.2899 20.71C19.3829 20.8037 19.4935 20.8781 19.6154 20.9289C19.7372 20.9797 19.8679 21.0058 19.9999 21.0058C20.132 21.0058 20.2627 20.9797 20.3845 20.9289C20.5064 20.8781 20.617 20.8037 20.7099 20.71C20.8037 20.617 20.8781 20.5064 20.9288 20.3846C20.9796 20.2627 21.0057 20.132 21.0057 20C21.0057 19.868 20.9796 19.7373 20.9288 19.6154C20.8781 19.4936 20.8037 19.383 20.7099 19.29L15.4099 14L20.7099 8.71C20.8037 8.61704 20.8781 8.50644 20.9288 8.38458C20.9796 8.26272 21.0057 8.13201 21.0057 8C21.0057 7.86799 20.9796 7.73728 20.9288 7.61542C20.8781 7.49356 20.8037 7.38296 20.7099 7.29Z" fill="white" fill-opacity="0.98"/>
</svg>
