<svg width="58" height="46" viewBox="0 0 58 46" fill="none" xmlns="http://www.w3.org/2000/svg">
<path d="M58.0001 23C57.9452 20.9957 57.1526 19.0822 55.7741 17.6262C54.3957 16.1703 52.5283 15.2743 50.5301 15.11C50.7806 14.9126 51.0178 14.6988 51.2401 14.47C51.9894 13.7121 52.5797 12.8122 52.9764 11.8231C53.373 10.834 53.5681 9.77554 53.5501 8.70998C53.4902 6.5903 52.6066 4.57741 51.0868 3.09866C49.5669 1.6199 47.5306 0.791735 45.4101 0.789978H2.70006C2.20411 0.789978 1.72847 0.986995 1.37778 1.33769C1.02708 1.68838 0.830065 2.16402 0.830065 2.65998V3.65998C0.829824 4.14519 0.985062 4.61771 1.27301 5.00824C1.56096 5.39878 1.96647 5.68677 2.43006 5.82998V12C1.96567 12.1451 1.55987 12.4349 1.27199 12.8272C0.984118 13.2194 0.829262 13.6934 0.830065 14.18V15.18C0.827421 15.4272 0.873837 15.6725 0.966629 15.9017C1.05942 16.1309 1.19674 16.3394 1.37065 16.5152C1.54456 16.691 1.7516 16.8305 1.9798 16.9257C2.20799 17.021 2.4528 17.07 2.70006 17.07H5.28007V18C5.28139 18.4848 5.43723 18.9566 5.72496 19.3468C6.01268 19.737 6.4173 20.0254 6.88007 20.17V26.3C6.41733 26.4478 6.01328 26.7384 5.72585 27.13C5.43842 27.5216 5.28237 27.9942 5.28007 28.48V29.48C5.26972 29.6064 5.26972 29.7335 5.28007 29.86C3.75832 30.4291 2.442 31.4411 1.50088 32.7654C0.559758 34.0898 0.037011 35.6657 6.52049e-05 37.29C-0.0170814 38.3471 0.177592 39.3969 0.572608 40.3776C0.967624 41.3582 1.55499 42.2499 2.30007 43C3.10094 43.821 4.0571 44.4746 5.11291 44.9227C6.16873 45.3708 7.30312 45.6044 8.45006 45.61H50.8501C51.3469 45.6073 51.8226 45.4081 52.173 45.0558C52.5234 44.7035 52.7201 44.2269 52.7201 43.73V42.73C52.7187 42.2451 52.5629 41.7734 52.2752 41.3831C51.9875 40.9929 51.5828 40.7046 51.1201 40.56V34.43C51.5828 34.2821 51.9869 33.9916 52.2743 33.6C52.5617 33.2083 52.7178 32.7358 52.7201 32.25V31.25C52.7171 31.0909 52.6936 30.933 52.6501 30.78C53.7955 30.3342 54.8346 29.6528 55.7001 28.78C56.45 28.0189 57.0399 27.1154 57.4349 26.1227C57.8299 25.13 58.0221 24.0682 58.0001 23ZM5.00007 5.99998H45.2701C45.6931 5.94502 46.123 5.98092 46.5311 6.10528C46.9392 6.22964 47.316 6.4396 47.6365 6.72115C47.957 7.0027 48.2138 7.34937 48.3897 7.73802C48.5656 8.12668 48.6566 8.54838 48.6566 8.97498C48.6566 9.40158 48.5656 9.82328 48.3897 10.2119C48.2138 10.6006 47.957 10.9473 47.6365 11.2288C47.316 11.5104 46.9392 11.7203 46.5311 11.8447C46.123 11.969 45.6931 12.0049 45.2701 11.95H4.43007V5.99998H5.00007ZM2.83007 14.19C2.83007 14.1157 2.85957 14.0445 2.91208 13.992C2.96459 13.9395 3.0358 13.91 3.11007 13.91H45.2701C45.9653 13.9798 46.6674 13.9031 47.3312 13.6848C47.995 13.4666 48.6056 13.1116 49.1238 12.6429C49.6419 12.1741 50.0561 11.602 50.3395 10.9633C50.623 10.3247 50.7694 9.6337 50.7694 8.93498C50.7694 8.23625 50.623 7.54529 50.3395 6.90664C50.0561 6.26799 49.6419 5.69584 49.1238 5.22709C48.6056 4.75834 47.995 4.40339 47.3312 4.18515C46.6674 3.9669 45.9653 3.89019 45.2701 3.95998H3.11007C3.0366 3.95749 2.96682 3.92719 2.91484 3.87521C2.86286 3.82323 2.83256 3.75345 2.83007 3.67998V2.78998H45.4101C46.2169 2.78599 47.0164 2.94316 47.7616 3.25225C48.5069 3.56134 49.1829 4.01615 49.7501 4.58998C50.8625 5.70188 51.5066 7.19774 51.5501 8.76998C51.5639 9.56687 51.4169 10.3584 51.118 11.0972C50.819 11.836 50.3742 12.507 49.8101 13.07C49.1963 13.6983 48.4639 14.1986 47.6555 14.5419C46.847 14.8852 45.9784 15.0647 45.1001 15.07H2.83007V14.19ZM9.50006 20.25H49.7201C50.1455 20.1894 50.579 20.2208 50.9912 20.3423C51.4034 20.4638 51.7847 20.6724 52.1093 20.954C52.4339 21.2356 52.6942 21.5836 52.8726 21.9746C53.0509 22.3655 53.1433 22.7903 53.1433 23.22C53.1433 23.6497 53.0509 24.0744 52.8726 24.4654C52.6942 24.8563 52.4339 25.2044 52.1093 25.486C51.7847 25.7676 51.4034 25.9762 50.9912 26.0977C50.579 26.2191 50.1455 26.2506 49.7201 26.19H8.88006V20.25H9.50006ZM48.8401 40.48H8.28006C7.85702 40.5349 7.42711 40.499 7.01904 40.3747C6.61096 40.2503 6.23411 40.0404 5.91361 39.7588C5.59311 39.4773 5.33635 39.1306 5.16045 38.7419C4.98456 38.3533 4.89357 37.9316 4.89357 37.505C4.89357 37.0784 4.98456 36.6567 5.16045 36.268C5.33635 35.8794 5.59311 35.5327 5.91361 35.2512C6.23411 34.9696 6.61096 34.7596 7.01904 34.6353C7.42711 34.5109 7.85702 34.475 8.28006 34.53H49.1201V40.48H48.8401ZM50.7201 31.36V32.25C50.7201 32.3242 50.6906 32.3955 50.6381 32.448C50.5855 32.5005 50.5143 32.53 50.4401 32.53H8.28006C7.58483 32.4602 6.8827 32.5369 6.21893 32.7551C5.55517 32.9734 4.94451 33.3283 4.42636 33.7971C3.9082 34.2658 3.49404 34.838 3.21059 35.4766C2.92714 36.1153 2.78069 36.8063 2.78069 37.505C2.78069 38.2037 2.92714 38.8947 3.21059 39.5333C3.49404 40.172 3.9082 40.7441 4.42636 41.2129C4.94451 41.6816 5.55517 42.0366 6.21893 42.2548C6.8827 42.4731 7.58483 42.5498 8.28006 42.48H50.4401C50.5135 42.4825 50.5833 42.5128 50.6353 42.5648C50.6873 42.6167 50.7176 42.6865 50.7201 42.76V43.65H8.45006C7.57172 43.6447 6.70316 43.4652 5.89467 43.1219C5.08618 42.7786 4.35384 42.2783 3.74006 41.65C3.17796 41.0834 2.73454 40.4104 2.43576 39.6703C2.13699 38.9302 1.98887 38.138 2.00007 37.34C2.03918 35.7368 2.70298 34.2122 3.84996 33.0914C4.99695 31.9706 6.53637 31.3421 8.14007 31.34H50.7201V31.36ZM49.5501 29.36H7.28007V28.48C7.28002 28.4048 7.3092 28.3325 7.36144 28.2784C7.41368 28.2243 7.4849 28.1926 7.56007 28.19H49.7201C50.4186 28.2668 51.1255 28.1956 51.7946 27.9809C52.4638 27.7662 53.0802 27.4128 53.6035 26.9439C54.1269 26.4749 54.5456 25.9009 54.8322 25.2592C55.1188 24.6176 55.267 23.9227 55.267 23.22C55.267 22.5172 55.1188 21.8224 54.8322 21.1807C54.5456 20.5391 54.1269 19.9651 53.6035 19.4961C53.0802 19.0271 52.4638 18.6738 51.7946 18.4591C51.1255 18.2444 50.4186 18.1731 49.7201 18.25H7.56007C7.4866 18.2475 7.41682 18.2172 7.36484 18.1652C7.31286 18.1132 7.28256 18.0434 7.28007 17.97V17.08H49.8601C51.4638 17.0821 53.0032 17.7106 54.1502 18.8314C55.2971 19.9522 55.961 21.4768 56.0001 23.08C56.0139 23.8769 55.8669 24.6684 55.568 25.4072C55.269 26.146 54.8242 26.817 54.2601 27.38C53.6446 28.0047 52.9115 28.5013 52.1031 28.8411C51.2947 29.181 50.427 29.3573 49.5501 29.36Z" fill="white"/>
</svg>
